<svg width="50" height="82" viewBox="0 0 50 82" fill="none" xmlns="http://www.w3.org/2000/svg">
<g filter="url(#filter0_d)">
<path d="M2 1C2 1 5.85 21.525 9 28.5C12.15 35.475 25 30.5 25 30.5C25 30.5 17.0135 34.8902 12 37C8.05283 38.6611 2 40 2 40V1Z" fill="white"/>
<path d="M2 1C2 1 5.85 21.525 9 28.5C12.15 35.475 25 30.5 25 30.5C25 30.5 17.0135 34.8902 12 37C8.05283 38.6611 2 40 2 40V1Z" fill="white"/>
<path d="M44 75C44 75 40.15 54.475 37 47.5C33.85 40.525 21 45.5 21 45.5C21 45.5 28.9865 41.1098 34 39C37.9472 37.3389 44 36 44 36V75Z" fill="white"/>
<path d="M44 75C44 75 40.15 54.475 37 47.5C33.85 40.525 21 45.5 21 45.5C21 45.5 28.9865 41.1098 34 39C37.9472 37.3389 44 36 44 36V75Z" fill="white"/>
<mask id="path-3-inside-1" fill="white">
<path fill-rule="evenodd" clip-rule="evenodd" d="M32 28.5C36.5 21.525 44 1 44 1V32C44 32 18.5 40.525 14 47.5C9.5 54.475 2 75 2 75V59.5V44C2 44 27.5 35.475 32 28.5Z"/>
</mask>
<path fill-rule="evenodd" clip-rule="evenodd" d="M32 28.5C36.5 21.525 44 1 44 1V32C44 32 18.5 40.525 14 47.5C9.5 54.475 2 75 2 75V59.5V44C2 44 27.5 35.475 32 28.5Z" fill="black"/>
<path d="M44 1H44.5L43.5304 0.828394L44 1ZM32 28.5L32.4201 28.7711L32 28.5ZM44 32L44.1585 32.4742L44.5 32.36V32H44ZM2 75H1.5L2.46963 75.1716L2 75ZM2 44L1.84147 43.5258L1.5 43.64V44H2ZM44 1C43.5304 0.828394 43.5303 0.828453 43.5303 0.82859C43.5302 0.82874 43.5302 0.828955 43.5301 0.829254C43.5298 0.829853 43.5295 0.830762 43.5291 0.831981C43.5282 0.834418 43.5268 0.838092 43.525 0.842985C43.5215 0.852772 43.5161 0.867438 43.5089 0.886854C43.4947 0.925687 43.4734 0.983517 43.4455 1.05931C43.3897 1.21088 43.3071 1.43429 43.2003 1.72121C42.9868 2.29506 42.6767 3.12292 42.2905 4.13824C41.5179 6.16907 40.4412 8.94907 39.2242 11.9463C36.7832 17.9581 33.7999 24.7879 31.5799 28.2289L32.4201 28.7711C34.7001 25.2371 37.7168 18.3169 40.1508 12.3225C41.3713 9.31656 42.4508 6.52936 43.2251 4.49379C43.6123 3.47591 43.9233 2.64576 44.1376 2.0699C44.2447 1.78197 44.3276 1.5576 44.3838 1.40511C44.4119 1.32887 44.4333 1.27059 44.4477 1.23133C44.4549 1.2117 44.4604 1.19682 44.4641 1.18682C44.4659 1.18182 44.4673 1.17804 44.4682 1.1755C44.4687 1.17423 44.469 1.17327 44.4693 1.17262C44.4694 1.1723 44.4695 1.17204 44.4695 1.17188C44.4696 1.1717 44.4696 1.17161 44 1ZM44.5 32V1H43.5V32H44.5ZM14.4201 47.7711C15.4756 46.1352 17.8193 44.3447 20.8396 42.5664C23.8379 40.8011 27.4263 39.0909 30.8861 37.5932C34.344 36.0964 37.6631 34.8162 40.1184 33.9101C41.3458 33.4571 42.3568 33.0978 43.0605 32.8519C43.4123 32.729 43.6873 32.6344 43.8741 32.5706C43.9675 32.5387 44.0388 32.5145 44.0867 32.4984C44.1107 32.4903 44.1287 32.4842 44.1408 32.4802C44.1468 32.4781 44.1513 32.4766 44.1542 32.4756C44.1557 32.4751 44.1568 32.4748 44.1575 32.4745C44.1579 32.4744 44.1581 32.4743 44.1583 32.4743C44.1585 32.4742 44.1585 32.4742 44 32C43.8415 31.5258 43.8413 31.5258 43.8411 31.5259C43.8409 31.526 43.8405 31.5261 43.8401 31.5262C43.8393 31.5265 43.8381 31.5269 43.8365 31.5275C43.8332 31.5286 43.8285 31.5301 43.8222 31.5322C43.8097 31.5365 43.7912 31.5427 43.7667 31.551C43.7178 31.5675 43.6454 31.592 43.551 31.6243C43.362 31.6888 43.0848 31.7841 42.7306 31.9079C42.0221 32.1555 41.0057 32.5167 39.7722 32.9719C37.3057 33.8822 33.9685 35.1692 30.4889 36.6755C27.0112 38.181 23.3808 39.9098 20.3323 41.7047C17.3057 43.4866 14.7744 45.3773 13.5799 47.2289L14.4201 47.7711ZM2 75C2.46963 75.1716 2.46965 75.1715 2.4697 75.1714C2.46976 75.1713 2.46983 75.171 2.46994 75.1707C2.47016 75.1702 2.47049 75.1692 2.47094 75.168C2.47183 75.1656 2.47318 75.1619 2.47497 75.157C2.47855 75.1472 2.48393 75.1326 2.49105 75.1131C2.5053 75.0743 2.52655 75.0165 2.55448 74.9407C2.61034 74.7891 2.69293 74.5657 2.79967 74.2788C3.01317 73.7049 3.32328 72.8771 3.70952 71.8618C4.48205 69.8309 5.55879 67.0509 6.77577 64.0537C9.21681 58.0419 12.2001 51.2121 14.4201 47.7711L13.5799 47.2289C11.2999 50.7629 8.28319 57.6831 5.84923 63.6775C4.62871 66.6834 3.5492 69.4706 2.77486 71.5062C2.38765 72.5241 2.07668 73.3542 1.86244 73.9301C1.75531 74.218 1.67237 74.4424 1.61617 74.5949C1.58807 74.6711 1.56666 74.7294 1.55225 74.7687C1.54505 74.7883 1.5396 74.8032 1.53594 74.8132C1.53411 74.8182 1.53273 74.822 1.5318 74.8245C1.53133 74.8258 1.53098 74.8267 1.53074 74.8274C1.53062 74.8277 1.53053 74.828 1.53047 74.8281C1.53041 74.8283 1.53037 74.8284 2 75ZM1.5 59.5V75H2.5V59.5H1.5ZM1.5 44V59.5H2.5V44H1.5ZM31.5799 28.2289C30.5244 29.8648 28.1807 31.6553 25.1604 33.4336C22.1621 35.1989 18.5737 36.9091 15.1139 38.4068C11.656 39.9036 8.33694 41.1838 5.88158 42.0899C4.65417 42.5429 3.64324 42.9022 2.93955 43.1481C2.58772 43.271 2.31273 43.3656 2.12592 43.4294C2.03252 43.4613 1.96117 43.4855 1.91329 43.5016C1.88935 43.5097 1.87127 43.5158 1.85924 43.5198C1.85323 43.5219 1.84872 43.5234 1.84575 43.5244C1.84427 43.5249 1.84317 43.5252 1.84245 43.5255C1.8421 43.5256 1.84185 43.5257 1.84167 43.5257C1.84152 43.5258 1.84147 43.5258 2 44C2.15853 44.4742 2.15867 44.4742 2.15891 44.4741C2.15912 44.474 2.15946 44.4739 2.15988 44.4738C2.16071 44.4735 2.16193 44.4731 2.16354 44.4725C2.16675 44.4715 2.1715 44.4699 2.17776 44.4678C2.19027 44.4635 2.20885 44.4573 2.23329 44.449C2.28218 44.4325 2.35457 44.408 2.44903 44.3757C2.63796 44.3112 2.91521 44.2159 3.26943 44.0921C3.97785 43.8445 4.99427 43.4833 6.2278 43.0281C8.69431 42.1178 12.0315 40.8308 15.5111 39.3245C18.9888 37.819 22.6192 36.0902 25.6677 34.2953C28.6943 32.5134 31.2256 30.6227 32.4201 28.7711L31.5799 28.2289Z" fill="white" mask="url(#path-3-inside-1)"/>
</g>
<defs>
<filter id="filter0_d" x="0" y="0" width="50" height="82" filterUnits="userSpaceOnUse" color-interpolation-filters="sRGB">
<feFlood flood-opacity="0" result="BackgroundImageFix"/>
<feColorMatrix in="SourceAlpha" type="matrix" values="0 0 0 0 0 0 0 0 0 0 0 0 0 0 0 0 0 0 127 0"/>
<feOffset dx="2" dy="3"/>
<feGaussianBlur stdDeviation="2"/>
<feColorMatrix type="matrix" values="0 0 0 0 0.98 0 0 0 0 0 0 0 0 0 1 0 0 0 0.4 0"/>
<feBlend mode="normal" in2="BackgroundImageFix" result="effect1_dropShadow"/>
<feBlend mode="normal" in="SourceGraphic" in2="effect1_dropShadow" result="shape"/>
</filter>
</defs>
</svg>
