<svg width="197" height="93" viewBox="0 0 197 93" fill="none" xmlns="http://www.w3.org/2000/svg">
<g opacity="0.75" filter="url(#filter0_d)">
<path d="M74.2894 70.31C54.4091 58.5469 45.2109 49.4208 32.4233 28.4439L21.5355 39.3317C19.5829 41.2843 19.5829 44.4501 21.5355 46.4027L59.8661 84.7333L74.2894 70.31Z" fill="url(#paint0_linear)"/>
<path d="M21.5355 46.4092C19.5829 44.4565 19.5829 41.2907 21.5355 39.3381L59.8661 1.00754L74.2894 15.4308C54.3087 27.8329 44.9655 36.8077 32.4233 57.2969L21.5355 46.4092Z" fill="#516A87"/>
</g>
<g opacity="0.75" filter="url(#filter1_d)">
<path d="M175.464 45.9655C177.417 44.0129 177.417 40.8471 175.464 38.8945L137.134 0.563919L122.711 14.9872C140.312 26.5426 149.459 35.7811 164.577 56.8533L175.464 45.9655Z" fill="url(#paint1_linear)"/>
<path d="M122.711 69.8737C143.387 54.6091 152.562 45.4449 164.577 28.0076L175.464 38.8953C177.417 40.848 177.417 44.0138 175.464 45.9664L137.134 84.297L122.711 69.8737Z" fill="#2B4C73"/>
</g>
<g filter="url(#filter2_d)">
<path d="M18.0312 60V24.4531H23.7188V39.332H27.0703V44.8672H23.7188V60H18.0312ZM29.7617 44.8672V39.332H33.1133V24.4531H38.8008V60H33.1133V44.8672H29.7617ZM48.0125 57.9688C48.0125 57.0208 48.4526 56.3607 49.3328 55.9883C49.6375 55.8529 49.9253 55.7852 50.1961 55.7852C51.1779 55.7852 51.8549 56.2422 52.2273 57.1562C52.3628 57.4271 52.4305 57.6979 52.4305 57.9688C52.4305 58.9505 51.9734 59.6445 51.0594 60.0508C50.7547 60.1523 50.4669 60.2031 50.1961 60.2031C49.2482 60.2031 48.5711 59.7461 48.1648 58.832C48.0633 58.5273 48.0125 58.2396 48.0125 57.9688ZM61.6422 50.8086C61.6422 52.7721 62.3701 54.6849 63.8258 56.5469C65.7893 58.9844 68.4469 60.2201 71.7984 60.2539V57.6641C68.887 57.6641 66.7034 56.4115 65.2477 53.9062C64.6383 52.7891 64.3336 51.7565 64.3336 50.8086V33.6953C64.3336 32.138 64.9768 30.6484 66.2633 29.2266C67.719 27.6354 69.5641 26.8229 71.7984 26.7891V24.1992C67.9052 24.1654 64.9938 25.7734 63.0641 29.0234C62.1161 30.6484 61.6422 32.2057 61.6422 33.6953V50.8086ZM74.1344 60.2539C76.9104 60.2539 79.2802 59.2044 81.2438 57.1055C82.9365 55.2435 83.7828 53.1276 83.7828 50.7578L81.3453 50.1992C81.3453 50.5378 81.3115 50.8424 81.2438 51.1133C81.176 51.7227 81.0745 52.2643 80.9391 52.7383C80.499 54.1602 79.7034 55.2773 78.5523 56.0898C77.4352 56.9023 76.4195 57.3594 75.5055 57.4609L74.1344 57.6641V60.2539ZM74.1344 26.7891C74.1344 26.7891 74.676 26.8906 75.7594 27.0938C78.2646 27.9062 79.9911 29.599 80.9391 32.1719C81.1083 32.7135 81.2099 33.1875 81.2438 33.5938V34.457L83.7828 33.7969C83.7828 31.1901 82.6995 28.888 80.5328 26.8906C78.5693 25.0964 76.4365 24.1992 74.1344 24.1992V26.7891ZM92.7914 52.7383V40.6523C92.7914 39.0612 93.5023 37.5208 94.9242 36.0312C96.6169 34.3047 98.7159 33.4414 101.221 33.4414V35.9805C98.9529 35.9805 97.2602 36.9284 96.143 38.8242C95.669 39.6706 95.432 40.5 95.432 41.3125V52.0781C95.432 53.4323 96.0753 54.7188 97.3617 55.9375C98.5128 56.987 99.7992 57.5117 101.221 57.5117V60.0508C98.0727 60.0508 95.669 58.7812 94.0102 56.2422C93.1977 55.0234 92.7914 53.8555 92.7914 52.7383ZM103.354 60.0508V57.5117C105.453 57.5117 107.044 56.5469 108.127 54.6172C108.635 53.7708 108.889 52.9583 108.889 52.1797V41.3125C108.889 39.8229 108.246 38.5026 106.959 37.3516C105.91 36.4375 104.708 35.9805 103.354 35.9805V33.4414C106.401 33.4414 108.737 34.6771 110.362 37.1484C111.14 38.3672 111.53 39.5352 111.53 40.6523V52.7383C111.53 54.3633 110.836 55.9206 109.448 57.4102C107.823 59.1367 105.791 60.0169 103.354 60.0508ZM119.675 52.9922L122.214 52.5352C122.214 54.2956 123.145 55.7344 125.007 56.8516C126.023 57.4271 127.021 57.7318 128.003 57.7656V60.2539C125.058 60.2539 122.756 59.1536 121.097 56.9531C120.149 55.6667 119.675 54.3464 119.675 52.9922ZM119.878 41.1602C119.878 38.0794 121.249 35.8112 123.991 34.3555C125.278 33.6784 126.581 33.3398 127.902 33.3398V35.8789C126.31 35.8789 124.939 36.5391 123.788 37.8594C122.908 38.8411 122.468 39.9414 122.468 41.1602C122.468 42.3451 123.297 43.2591 124.956 43.9023C125.599 44.1732 128.155 44.8503 132.624 45.9336C132.861 46.0013 133.081 46.0521 133.284 46.0859C136.839 47 138.735 48.8281 138.972 51.5703C138.972 51.7396 138.972 51.9089 138.972 52.0781C138.972 55.0911 137.736 57.3594 135.265 58.8828C133.741 59.7969 132.032 60.2539 130.136 60.2539V57.7656C131.896 57.7656 133.437 57.1393 134.757 55.8867C135.84 54.8372 136.382 53.5846 136.382 52.1289C136.382 50.6055 134.977 49.4036 132.167 48.5234C131.998 48.4557 129.848 47.931 125.718 46.9492C125.413 46.8815 125.142 46.8138 124.905 46.7461C121.926 45.8659 120.267 44.3086 119.929 42.0742C119.895 41.7695 119.878 41.4648 119.878 41.1602ZM130.085 35.9297V33.3398C132.929 33.3398 135.197 34.4062 136.89 36.5391C137.973 37.8594 138.515 39.2474 138.515 40.7031L135.976 41.1094C135.976 39.112 134.876 37.6055 132.675 36.5898C131.727 36.1497 130.864 35.9297 130.085 35.9297ZM147.371 29.9375C147.371 29.1927 147.743 28.668 148.488 28.3633C148.691 28.2956 148.895 28.2617 149.098 28.2617C149.876 28.2617 150.401 28.6341 150.672 29.3789C150.74 29.582 150.773 29.7682 150.773 29.9375C150.773 30.7161 150.401 31.2409 149.656 31.5117C149.453 31.5794 149.267 31.6133 149.098 31.6133C148.319 31.6133 147.777 31.2578 147.473 30.5469C147.405 30.3438 147.371 30.1406 147.371 29.9375ZM147.777 60V33.6445H150.418V60H147.777ZM160.087 60V40.6016C160.087 38.9766 160.815 37.4023 162.27 35.8789C163.997 34.1523 166.113 33.2891 168.618 33.2891V35.9297C166.756 35.9297 165.182 36.6576 163.895 38.1133C163.117 39.0273 162.727 39.9583 162.727 40.9062V60H160.087ZM170.802 35.9297V33.2891C173.848 33.2891 176.252 34.5417 178.012 37.0469C178.893 38.2995 179.333 39.4844 179.333 40.6016V60H176.641V40.9062C176.641 39.8229 176.083 38.7396 174.966 37.6562C173.781 36.5052 172.393 35.9297 170.802 35.9297Z" fill="white"/>
</g>
<defs>
<filter id="filter0_d" x="16.0711" y="1.00754" width="62.2183" height="91.7258" filterUnits="userSpaceOnUse" color-interpolation-filters="sRGB">
<feFlood flood-opacity="0" result="BackgroundImageFix"/>
<feColorMatrix in="SourceAlpha" type="matrix" values="0 0 0 0 0 0 0 0 0 0 0 0 0 0 0 0 0 0 127 0"/>
<feOffset dy="4"/>
<feGaussianBlur stdDeviation="2"/>
<feColorMatrix type="matrix" values="0 0 0 0 0 0 0 0 0 0 0 0 0 0 0 0 0 0 0.25 0"/>
<feBlend mode="normal" in2="BackgroundImageFix" result="effect1_dropShadow"/>
<feBlend mode="normal" in="SourceGraphic" in2="effect1_dropShadow" result="shape"/>
</filter>
<filter id="filter1_d" x="118.711" y="0.563919" width="62.2183" height="91.733" filterUnits="userSpaceOnUse" color-interpolation-filters="sRGB">
<feFlood flood-opacity="0" result="BackgroundImageFix"/>
<feColorMatrix in="SourceAlpha" type="matrix" values="0 0 0 0 0 0 0 0 0 0 0 0 0 0 0 0 0 0 127 0"/>
<feOffset dy="4"/>
<feGaussianBlur stdDeviation="2"/>
<feColorMatrix type="matrix" values="0 0 0 0 0 0 0 0 0 0 0 0 0 0 0 0 0 0 0.25 0"/>
<feBlend mode="normal" in2="BackgroundImageFix" result="effect1_dropShadow"/>
<feBlend mode="normal" in="SourceGraphic" in2="effect1_dropShadow" result="shape"/>
</filter>
<filter id="filter2_d" x="14.0312" y="24.1987" width="169.302" height="44.0552" filterUnits="userSpaceOnUse" color-interpolation-filters="sRGB">
<feFlood flood-opacity="0" result="BackgroundImageFix"/>
<feColorMatrix in="SourceAlpha" type="matrix" values="0 0 0 0 0 0 0 0 0 0 0 0 0 0 0 0 0 0 127 0"/>
<feOffset dy="4"/>
<feGaussianBlur stdDeviation="2"/>
<feColorMatrix type="matrix" values="0 0 0 0 0 0 0 0 0 0 0 0 0 0 0 0 0 0 0.25 0"/>
<feBlend mode="normal" in2="BackgroundImageFix" result="effect1_dropShadow"/>
<feBlend mode="normal" in="SourceGraphic" in2="effect1_dropShadow" result="shape"/>
</filter>
<linearGradient id="paint0_linear" x1="34" y1="43.5" x2="68" y2="77.5" gradientUnits="userSpaceOnUse">
<stop offset="0.246133" stop-color="#464F5A"/>
<stop offset="1" stop-color="#86A1C0"/>
</linearGradient>
<linearGradient id="paint1_linear" x1="163.5" y1="40" x2="129" y2="7.5" gradientUnits="userSpaceOnUse">
<stop offset="0.156825" stop-color="#1B2735"/>
<stop offset="1" stop-color="#779CC8"/>
</linearGradient>
</defs>
</svg>
