<?xml version="1.0" standalone="no"?>
<!DOCTYPE svg PUBLIC "-//W3C//DTD SVG 20010904//EN"
 "http://www.w3.org/TR/2001/REC-SVG-20010904/DTD/svg10.dtd">
<svg version="1.0" xmlns="http://www.w3.org/2000/svg"
 width="944.000000pt" height="944.000000pt" viewBox="0 0 944.000000 944.000000"
 preserveAspectRatio="xMidYMid meet">
<metadata>
Created by potrace 1.14, written by Peter Selinger 2001-2017
</metadata>
<g transform="translate(0.000000,944.000000) scale(0.100000,-0.100000)"
fill="#000000" stroke="none">
<path d="M330 7940 c-4 -3 -7 -44 -6 -93 0 -48 -1 -87 -4 -87 -3 0 -5 -11 -5
-25 0 -14 2 -25 5 -25 7 0 3 -86 -4 -99 -4 -5 -2 -12 3 -16 6 -3 7 -13 4 -22
-8 -20 -8 -81 -1 -89 4 -3 2 -19 -2 -35 -5 -17 -5 -31 1 -35 5 -3 6 -12 0 -21
-4 -9 -5 -31 -1 -49 4 -18 5 -36 2 -39 -9 -8 -10 -45 -1 -50 4 -3 4 -20 0 -38
-5 -18 -5 -41 -1 -52 4 -11 4 -29 0 -41 -5 -11 -4 -28 1 -37 6 -9 6 -17 2 -17
-4 0 -8 -11 -8 -25 0 -14 4 -25 8 -25 4 0 3 -8 -2 -18 -6 -11 -6 -24 0 -35 6
-9 6 -17 2 -17 -4 0 -8 -11 -8 -25 0 -14 3 -25 7 -25 4 0 3 -13 -2 -30 -5 -19
-5 -30 1 -30 6 0 6 -6 0 -18 -6 -11 -6 -24 0 -35 7 -11 7 -17 0 -17 -6 0 -6
-11 -1 -29 4 -15 4 -34 0 -42 -5 -7 -4 -21 1 -31 6 -12 6 -18 0 -18 -6 0 -6
-11 -1 -29 4 -16 6 -31 4 -33 -8 -9 -13 -78 -5 -73 5 2 5 -11 1 -30 -4 -19 -4
-35 1 -35 5 0 4 -11 -1 -25 -5 -14 -7 -32 -4 -40 8 -19 11 -104 4 -100 -3 2
-5 -21 -5 -51 0 -30 4 -54 8 -54 4 0 4 -8 -2 -17 -6 -11 -6 -24 0 -35 5 -10 6
-18 1 -18 -9 0 -8 -53 3 -69 3 -6 3 -11 -2 -11 -4 0 -8 -11 -8 -25 0 -14 4
-25 8 -25 4 0 3 -8 -2 -18 -6 -10 -6 -24 -1 -32 5 -8 6 -19 3 -24 -10 -15 -10
-56 0 -56 4 0 3 -8 -2 -18 -6 -11 -6 -24 0 -35 6 -11 6 -17 0 -17 -5 0 -7 -10
-3 -22 4 -16 2 -19 -9 -13 -8 5 -6 -1 4 -12 11 -13 14 -23 8 -27 -7 -4 -7 -15
-1 -30 5 -13 7 -26 5 -27 -8 -8 -13 -99 -5 -94 4 3 4 -11 0 -30 -4 -19 -4 -35
1 -35 5 0 4 -11 -1 -25 -5 -14 -7 -32 -4 -40 8 -20 10 -104 3 -99 -7 4 -2 -86
5 -94 3 -2 1 -14 -4 -26 -4 -13 -4 -29 1 -39 6 -9 6 -17 2 -17 -4 0 -8 -11 -8
-25 0 -14 4 -25 8 -25 4 0 3 -8 -2 -18 -6 -11 -6 -24 0 -35 6 -9 6 -17 2 -17
-4 0 -8 -11 -8 -25 0 -14 3 -25 7 -25 4 0 3 -13 -2 -30 -5 -19 -5 -30 1 -30 6
0 6 -6 0 -18 -6 -11 -6 -24 0 -35 7 -11 7 -17 0 -17 -6 0 -6 -11 -1 -29 4 -15
4 -34 0 -42 -5 -7 -4 -21 1 -31 6 -12 6 -18 0 -18 -6 0 -6 -11 -1 -29 4 -16 6
-31 4 -33 -8 -9 -13 -78 -5 -73 5 2 5 -11 1 -30 -4 -19 -4 -35 1 -35 5 0 4
-11 -1 -25 -5 -14 -7 -32 -4 -40 8 -19 11 -104 4 -100 -3 2 -5 -21 -5 -51 0
-30 4 -54 8 -54 4 0 3 -8 -2 -18 -6 -11 -6 -24 0 -35 6 -9 6 -17 1 -17 -9 0
-8 -53 3 -69 3 -6 3 -11 -2 -11 -4 0 -8 -11 -8 -25 0 -14 4 -25 8 -25 4 0 3
-8 -2 -18 -6 -10 -6 -24 -1 -32 5 -8 6 -19 3 -24 -10 -15 -10 -56 0 -56 4 0 3
-8 -2 -18 -6 -11 -6 -24 0 -35 6 -11 6 -17 0 -17 -5 0 -7 -10 -3 -22 4 -16 2
-19 -9 -13 -8 5 -6 -1 4 -12 11 -13 14 -23 8 -27 -7 -4 -7 -15 -1 -30 5 -13 7
-26 5 -27 -8 -8 -13 -99 -5 -94 4 3 4 -11 0 -30 -4 -19 -4 -35 1 -35 5 0 4
-11 -1 -25 -5 -14 -7 -32 -4 -40 8 -20 10 -104 3 -99 -7 4 -2 -86 5 -94 3 -2
1 -14 -4 -26 -4 -13 -4 -29 1 -39 6 -9 6 -17 2 -17 -4 0 -8 -11 -8 -25 0 -14
4 -25 8 -25 4 0 3 -8 -2 -18 -6 -11 -6 -24 0 -35 6 -9 6 -17 2 -17 -4 0 -8
-11 -8 -25 0 -14 3 -25 7 -25 4 0 3 -13 -2 -30 -5 -19 -5 -30 1 -30 6 0 6 -6
0 -18 -6 -11 -6 -24 0 -35 7 -11 7 -17 0 -17 -6 0 -6 -11 -1 -29 4 -15 4 -34
0 -42 -5 -7 -4 -21 1 -31 6 -12 6 -18 0 -18 -6 0 -6 -11 -1 -29 4 -16 6 -31 4
-33 -8 -9 -13 -78 -5 -73 5 2 5 -11 1 -30 -4 -19 -4 -35 1 -35 5 0 4 -11 -1
-25 -5 -14 -7 -32 -4 -40 8 -19 11 -104 4 -100 -7 5 -4 -100 3 -112 3 -5 2
-15 -3 -23 -5 -9 -5 -19 2 -27 6 -7 7 -13 2 -13 -5 0 -9 -11 -9 -25 0 -14 4
-25 8 -25 5 0 6 -3 3 -8 -2 -4 7 -12 20 -19 13 -6 22 -7 19 -3 -3 5 54 8 126
7 72 -1 133 2 136 6 3 4 10 4 16 -1 10 -8 59 -9 92 -2 25 6 46 -1 39 -12 -5
-8 -3 -8 7 -2 20 13 269 13 269 0 0 -6 5 -4 10 4 5 8 10 11 10 6 0 -5 6 -3 14
3 10 8 16 9 21 1 6 -9 51 -7 62 4 3 3 15 1 27 -4 51 -19 48 -65 48 1076 0 785
3 1073 12 1083 7 10 7 13 0 8 -7 -4 -11 31 -12 114 0 65 3 117 8 114 4 -3 10
2 13 10 4 9 1 12 -9 8 -9 -3 -14 1 -14 12 0 9 5 13 10 10 6 -3 10 -3 10 2 0 4
43 8 95 8 52 0 95 -4 95 -9 0 -5 6 -4 13 3 10 8 17 7 25 -1 9 -9 12 -9 12 1 0
10 3 11 13 2 10 -8 17 -7 25 1 9 9 12 9 12 -1 0 -11 3 -11 15 -1 11 9 15 9 15
1 0 -9 5 -9 20 -1 14 8 20 8 20 0 0 -7 5 -8 13 -3 17 11 31 10 40 -2 5 -7 9
-7 15 0 10 15 46 12 68 -5 18 -14 18 -14 4 4 -14 18 -13 19 3 13 10 -4 17 -2
18 6 1 11 1 621 -1 809 l0 77 -192 1 c-106 0 -214 1 -241 3 -26 1 -47 -2 -47
-6 0 -4 -8 -3 -18 2 -13 7 -22 7 -29 0 -7 -7 -11 357 -11 1143 -1 634 -1 1178
-1 1208 l-1 55 -451 0 c-248 0 -454 -2 -459 -5z"/>
<path d="M2759 7935 c0 -5 -1 -98 -2 -205 -1 -107 -6 -201 -10 -207 -5 -7 -5
-13 0 -13 4 0 8 -54 9 -119 0 -74 -4 -118 -9 -114 -6 4 -7 1 -1 -8 11 -18 13
-269 2 -275 -5 -3 -5 -11 0 -17 5 -7 9 -21 9 -32 0 -11 -4 -25 -9 -32 -5 -7
-5 -13 0 -17 5 -3 10 -17 10 -31 0 -14 -5 -28 -10 -31 -5 -3 -5 -11 0 -17 12
-16 13 -55 1 -62 -5 -4 -6 -12 -2 -18 10 -17 11 -377 0 -384 -4 -2 -4 -10 1
-16 12 -16 13 -55 1 -62 -5 -4 -6 -12 -2 -18 10 -17 11 -237 1 -243 -5 -3 -5
-11 -1 -17 11 -17 12 -117 1 -123 -5 -3 -5 -11 0 -17 12 -16 13 -55 1 -62 -5
-4 -6 -12 -2 -18 4 -7 8 -63 8 -125 l0 -112 -27 4 c-16 2 -28 1 -28 -2 0 -4
-107 -6 -237 -5 -131 1 -240 -2 -243 -7 -3 -4 -5 -206 -5 -447 1 -338 3 -437
13 -436 7 2 12 -2 12 -8 0 -5 6 -7 12 -3 22 14 49 12 44 -2 -3 -7 0 -16 7 -20
7 -4 9 -4 5 1 -4 4 -3 14 3 22 9 10 15 10 25 2 11 -9 14 -8 14 1 0 10 3 10 15
0 12 -10 15 -10 15 0 0 10 3 10 15 0 12 -10 15 -10 15 0 0 10 3 10 15 0 12
-10 15 -10 15 0 0 10 3 10 15 0 12 -10 15 -10 15 0 0 10 3 10 15 0 12 -10 15
-10 15 1 0 11 2 11 10 -1 5 -8 10 -10 10 -5 0 12 129 13 148 2 6 -5 12 -4 12
0 0 5 15 8 33 7 47 -3 49 -3 42 -13 -3 -6 -14 -8 -25 -6 -12 2 -18 0 -15 -5 3
-5 13 -7 23 -5 15 3 17 -7 17 -84 0 -47 -4 -89 -10 -93 -6 -5 -6 -8 2 -8 15 0
10 -29 -6 -39 -10 -6 -8 -10 5 -15 16 -6 15 -8 -2 -27 -13 -15 -14 -20 -4 -17
12 3 14 -144 15 -1067 l0 -1070 146 1 c80 0 151 4 157 8 7 4 12 2 12 -5 0 -7
3 -9 7 -6 3 4 13 1 21 -6 13 -9 14 -9 8 0 -4 8 -2 13 8 13 8 0 17 -6 19 -12 4
-10 6 -9 6 1 1 11 4 11 16 1 9 -7 18 -10 22 -6 3 3 0 6 -8 7 -8 0 -6 4 6 8 26
11 57 2 51 -15 -3 -8 0 -11 9 -7 8 3 12 9 9 14 -3 5 2 9 11 9 11 0 15 -5 12
-14 -6 -15 17 -16 30 -1 4 4 2 5 -4 1 -7 -4 -13 -3 -13 2 0 18 28 21 51 5 12
-9 19 -11 15 -5 -4 7 -1 12 8 12 9 0 16 -6 16 -12 0 -9 3 -9 8 -3 4 6 17 10
30 9 12 -1 22 3 22 8 0 5 7 5 18 0 9 -5 35 -7 57 -6 22 1 46 -3 54 -10 12 -8
13 -8 7 1 -5 9 1 12 24 9 17 -2 33 1 36 5 3 5 14 4 25 -1 22 -12 21 -13 23 70
1 30 5 61 9 68 5 6 5 12 0 12 -4 0 -8 56 -8 125 0 103 2 124 14 120 12 -5 12
-3 0 11 -16 20 -21 44 -8 44 6 0 7 6 3 12 -11 17 -12 48 -3 48 5 0 5 10 1 22
-10 27 -8 60 3 78 5 7 4 11 -1 7 -5 -3 -9 23 -9 59 0 35 4 64 8 64 4 0 3 8 -2
18 -6 10 -6 24 -1 32 5 8 6 18 3 23 -9 15 -9 67 0 67 6 0 6 5 1 13 -11 15 -11
38 -1 55 5 6 5 12 0 12 -4 0 -8 23 -8 50 0 28 4 50 8 50 4 0 3 8 -2 18 -5 10
-6 24 -1 32 5 8 5 21 -1 31 -12 24 -11 32 3 23 7 -4 8 -3 4 5 -13 20 -14 61
-2 61 7 0 7 3 1 8 -12 9 -16 44 -4 36 5 -3 9 -1 9 5 0 5 -5 13 -10 16 -8 5 -7
11 1 21 6 8 8 14 3 14 -5 0 -9 11 -9 25 0 14 4 25 8 25 5 0 5 6 1 12 -5 7 -8
75 -8 150 -1 114 1 137 13 133 12 -5 12 -3 0 11 -16 20 -21 44 -8 44 6 0 7 6
2 13 -10 16 -10 37 -1 65 4 12 3 22 -2 22 -9 0 -6 32 5 50 3 6 3 10 -2 10 -4
0 -8 29 -8 65 0 36 4 65 8 65 4 0 3 8 -2 18 -5 10 -6 24 -1 32 5 8 5 21 1 29
-9 21 -7 263 3 279 4 7 4 12 -1 12 -4 0 -8 56 -8 125 0 103 2 124 14 120 12
-5 12 -3 0 11 -16 20 -21 44 -8 44 6 0 7 5 3 12 -12 19 -11 97 1 91 6 -3 5 0
-2 7 -8 9 -9 19 -2 32 5 10 6 18 2 18 -4 0 -8 29 -8 65 0 36 4 65 8 65 4 0 3
8 -2 18 -5 10 -6 24 -1 32 5 8 5 21 -1 31 -12 24 -11 32 3 23 7 -4 8 -3 4 5
-13 20 -14 61 -2 61 7 0 7 3 1 8 -12 9 -16 44 -4 36 5 -3 9 -1 9 5 0 5 -5 13
-10 16 -8 5 -7 11 1 21 6 8 8 14 3 14 -5 0 -9 11 -9 25 0 14 4 25 8 25 5 0 5
6 1 12 -5 7 -8 75 -8 150 -1 114 1 137 13 133 12 -5 12 -3 0 11 -16 20 -21 44
-8 44 6 0 7 6 2 13 -10 16 -10 37 -1 65 4 12 3 22 -2 22 -9 0 -6 32 5 50 3 6
3 10 -2 10 -4 0 -8 29 -8 65 0 36 4 65 8 65 4 0 3 8 -2 18 -5 10 -6 24 -1 32
5 8 5 21 -1 31 -12 24 -11 32 3 23 7 -4 8 -3 4 5 -13 20 -14 61 -2 61 7 0 7 3
1 8 -12 9 -16 44 -4 36 5 -3 9 -1 9 5 0 5 -5 13 -10 16 -8 5 -7 11 1 21 6 8 8
14 3 14 -5 0 -9 11 -9 25 0 14 4 25 8 25 5 0 5 6 1 12 -5 7 -8 75 -8 150 -1
114 1 137 13 133 12 -5 12 -3 0 11 -17 20 -20 44 -7 44 7 0 7 5 1 13 -11 14
-10 297 1 315 4 6 4 12 -1 12 -4 0 -8 16 -8 35 0 19 4 35 8 35 5 0 5 5 1 12
-10 16 -11 259 -1 265 4 2 4 9 0 15 -3 7 -7 106 -7 221 l-1 210 -458 1 c-298
1 -457 -2 -458 -9z"/>
<path d="M1269 7363 c-13 -16 -12 -17 4 -4 9 7 17 15 17 17 0 8 -8 3 -21 -13z"/>
<path d="M7237 6743 c-1 -1 -33 -4 -72 -7 -38 -3 -80 -8 -91 -10 -12 -2 -37
-7 -55 -10 -19 -3 -44 -8 -56 -11 -13 -3 -33 -7 -44 -10 -25 -5 -87 -24 -109
-32 -8 -4 -17 -7 -20 -8 -33 -11 -56 -21 -120 -52 -204 -98 -376 -251 -538
-479 -17 -25 -33 -51 -44 -74 -7 -14 -15 -27 -19 -30 -15 -12 -112 -230 -102
-230 3 0 1 -6 -4 -12 -6 -7 -14 -31 -18 -53 -5 -22 -9 -43 -10 -47 -2 -5 -3
-15 -4 -24 -1 -9 -6 -12 -13 -8 -10 6 -10 4 -2 -7 6 -8 10 -23 7 -34 -2 -11
-5 -35 -5 -52 -1 -18 -7 -33 -13 -33 -6 0 -6 -3 1 -8 14 -9 13 -104 -1 -114
-6 -5 -6 -8 1 -8 6 0 11 -13 11 -30 0 -16 -5 -27 -10 -23 -6 4 -7 1 -2 -8 11
-17 13 -339 2 -346 -4 -2 -4 -10 0 -16 11 -19 10 -767 -2 -767 -7 0 -7 -3 0
-8 14 -10 14 -305 0 -314 -6 -5 -7 -8 0 -8 6 0 10 -95 9 -267 0 -148 2 -272 5
-278 2 -5 6 -18 7 -30 2 -11 6 -38 9 -60 4 -22 8 -47 9 -55 1 -9 5 -21 10 -28
4 -6 4 -12 -1 -12 -4 0 -3 -4 2 -8 9 -5 27 -54 40 -102 4 -17 41 -86 48 -88 4
-2 7 -9 7 -16 0 -7 11 -30 25 -50 13 -20 22 -36 19 -36 -2 0 5 -10 16 -22 28
-30 47 -63 29 -53 -8 5 -10 4 -5 -3 4 -7 14 -12 22 -12 13 0 19 -12 15 -33 -1
-5 2 -6 7 -3 11 7 42 -30 38 -46 -1 -7 -1 -10 1 -6 3 4 33 -21 67 -55 34 -34
79 -75 99 -91 20 -15 34 -32 31 -37 -3 -5 -2 -8 3 -7 7 3 81 -38 93 -51 3 -4
19 -13 35 -21 17 -8 32 -17 35 -20 7 -9 119 -60 164 -76 22 -8 45 -19 53 -25
7 -6 13 -9 13 -6 0 10 105 -24 112 -37 6 -8 8 -7 8 2 0 9 5 10 18 3 20 -11 83
-21 175 -30 5 -1 5 -7 1 -13 -6 -10 -5 -10 7 -1 18 14 59 13 59 -2 0 -6 3 -7
8 0 8 11 72 14 72 4 0 -3 13 -6 30 -5 29 1 46 19 35 36 -3 5 -1 12 5 15 8 5 7
11 -1 22 -10 11 -10 16 0 23 7 4 9 10 4 13 -7 5 -10 140 -3 157 1 3 1 10 0 15
-8 34 -6 94 3 88 6 -3 7 -1 3 6 -13 20 -16 60 -6 66 6 4 7 12 3 18 -4 7 -8 93
-9 192 -1 99 -2 183 -3 186 0 3 -16 6 -33 7 -34 0 -95 7 -163 18 -38 6 -114
34 -145 54 -8 6 -24 14 -35 19 -30 14 -99 90 -130 144 -15 26 -24 47 -21 47 4
0 -2 12 -11 27 -14 21 -15 25 -3 18 12 -7 13 -6 4 6 -6 8 -12 21 -12 29 -6
100 -6 153 1 157 4 2 5 9 1 14 -10 16 -11 69 -1 69 4 0 5 5 2 11 -4 6 -7 137
-6 292 1 357 1 338 -2 430 -1 42 1 77 5 77 4 0 5 7 2 15 -9 22 -10 305 -2 305
4 0 5 7 1 16 -9 25 -9 194 1 194 5 0 4 6 -2 13 -5 6 -6 21 -2 32 4 11 4 33 0
50 -4 17 -3 41 1 53 5 12 5 22 0 22 -5 0 -6 12 -4 28 2 15 4 38 3 52 -1 14 -2
43 -4 65 -1 22 2 46 7 53 6 8 5 12 -2 12 -7 0 -9 5 -4 13 11 18 12 36 2 43 -5
3 -5 13 1 25 7 12 7 19 1 19 -6 0 -8 6 -6 13 3 6 7 32 9 57 4 41 12 81 16 88
2 1 3 5 4 10 5 23 40 82 48 82 6 0 7 -7 4 -16 -3 -9 -2 -12 5 -9 6 4 8 14 5
22 -4 9 8 29 29 50 19 19 35 31 35 27 0 -5 7 1 15 13 9 13 22 20 30 17 8 -4
15 -2 15 4 0 10 75 51 102 56 7 2 20 6 28 9 8 4 27 8 42 11 15 3 33 8 39 12 8
5 9 3 4 -7 -8 -12 -6 -12 8 0 9 7 26 11 37 8 11 -3 20 -2 20 3 0 4 14 6 30 4
17 -2 30 1 30 7 0 6 5 7 11 3 8 -5 8 -1 0 14 -6 11 -11 23 -11 27 0 3 5 3 11
-1 8 -5 8 -1 0 14 -6 11 -11 23 -11 27 0 3 5 3 11 -1 8 -5 8 -1 0 14 -14 27
-14 35 1 26 7 -5 8 -3 3 6 -11 18 -12 199 -1 193 5 -4 6 0 1 7 -13 21 -14 80
-1 80 7 0 7 3 1 8 -6 4 -10 84 -10 207 l-1 200 -48 0 c-26 0 -48 -1 -49 -2z"/>
<path d="M7719 6741 c-13 -5 -15 -40 -14 -248 0 -132 -3 -239 -7 -236 -5 2 -3
-8 3 -24 11 -30 11 -30 -2 -55 -6 -10 -5 -19 1 -23 5 -3 10 -11 10 -16 0 -6
-4 -7 -10 -4 -6 4 -7 -2 -2 -17 4 -13 7 -65 6 -115 -2 -100 -4 -95 54 -96 12
-1 22 -3 22 -6 0 -3 19 -7 42 -8 23 -2 68 -13 100 -25 48 -19 57 -26 53 -43
-3 -11 -2 -15 1 -9 4 9 13 9 34 1 17 -6 30 -15 30 -19 0 -4 10 -17 23 -30 35
-35 67 -84 67 -102 0 -9 3 -16 8 -16 4 0 12 -16 18 -35 6 -20 7 -35 2 -35 -5
0 -2 -7 6 -16 9 -8 16 -23 17 -32 0 -9 3 -26 5 -37 3 -11 6 -88 7 -172 2 -141
3 -150 19 -142 10 5 18 7 18 3 0 -3 6 -2 13 4 10 9 122 55 137 57 3 0 10 4 17
8 6 4 23 8 37 9 14 1 26 5 26 9 0 3 19 12 43 19 23 8 47 17 52 20 6 4 18 10
29 14 14 5 17 2 12 -9 -3 -9 -2 -13 4 -10 6 3 10 13 10 22 0 9 3 13 7 10 3 -4
11 -2 18 3 6 5 20 11 31 13 10 2 27 7 36 11 9 4 22 4 29 0 7 -4 9 -3 6 3 -4 6
5 16 21 21 15 6 68 26 117 44 118 43 123 47 125 88 1 19 1 37 0 40 -1 3 -4 25
-6 50 -4 67 -14 128 -23 153 -5 12 -7 30 -6 40 2 9 -1 17 -6 17 -5 0 -9 9 -9
20 0 10 -5 32 -11 47 -6 15 -15 37 -19 48 -79 205 -224 393 -409 533 -42 31
-78 59 -81 62 -11 11 -89 53 -165 89 -105 50 -198 80 -325 106 -21 4 -127 16
-170 19 -20 2 -42 0 -51 -3z"/>
<path d="M3716 6282 c-3 -5 1 -9 9 -9 8 0 12 4 9 9 -3 4 -7 8 -9 8 -2 0 -6 -4
-9 -8z"/>
<path d="M7667 6019 c7 -7 15 -10 18 -7 3 3 -2 9 -12 12 -14 6 -15 5 -6 -5z"/>
<path d="M265 5919 c-3 -4 2 -6 10 -5 21 3 28 13 10 13 -9 0 -18 -4 -20 -8z"/>
<path d="M7816 5862 c-3 -4 4 -9 15 -9 23 -2 25 3 4 10 -8 4 -16 3 -19 -1z"/>
<path d="M7073 5845 c0 -8 4 -12 9 -9 5 3 6 10 3 15 -9 13 -12 11 -12 -6z"/>
<path d="M7016 5813 c-6 -14 -5 -15 5 -6 7 7 10 15 7 18 -3 3 -9 -2 -12 -12z"/>
<path d="M7214 5822 c4 -3 14 -7 22 -8 9 -1 13 0 10 4 -4 3 -14 7 -22 8 -9 1
-13 0 -10 -4z"/>
<path d="M7050 5801 c0 -6 4 -12 8 -15 5 -3 9 1 9 9 0 8 -4 15 -9 15 -4 0 -8
-4 -8 -9z"/>
<path d="M7116 5793 c-6 -14 -5 -15 5 -6 7 7 10 15 7 18 -3 3 -9 -2 -12 -12z"/>
<path d="M7150 5799 c0 -5 5 -7 10 -4 6 3 10 8 10 11 0 2 -4 4 -10 4 -5 0 -10
-5 -10 -11z"/>
<path d="M7813 5775 c0 -8 4 -12 9 -9 5 3 6 10 3 15 -9 13 -12 11 -12 -6z"/>
<path d="M7116 5762 c-3 -5 1 -9 9 -9 8 0 12 4 9 9 -3 4 -7 8 -9 8 -2 0 -6 -4
-9 -8z"/>
<path d="M7315 5760 c3 -5 8 -10 11 -10 2 0 4 5 4 10 0 6 -5 10 -11 10 -5 0
-7 -4 -4 -10z"/>
<path d="M8033 5755 c0 -8 4 -12 9 -9 5 3 6 10 3 15 -9 13 -12 11 -12 -6z"/>
<path d="M7806 5738 c3 -5 10 -6 15 -3 13 9 11 12 -6 12 -8 0 -12 -4 -9 -9z"/>
<path d="M7856 5738 c3 -4 11 -5 19 -1 21 7 19 12 -4 10 -11 0 -18 -5 -15 -9z"/>
<path d="M7073 5725 c0 -8 4 -12 9 -9 5 3 6 10 3 15 -9 13 -12 11 -12 -6z"/>
<path d="M7109 5723 c-13 -16 -12 -17 4 -4 9 7 17 15 17 17 0 8 -8 3 -21 -13z"/>
<path d="M6915 5701 c-3 -5 -2 -12 3 -15 5 -3 9 1 9 9 0 17 -3 19 -12 6z"/>
<path d="M7935 5700 c3 -5 8 -10 11 -10 2 0 4 5 4 10 0 6 -5 10 -11 10 -5 0
-7 -4 -4 -10z"/>
<path d="M7105 5680 c-3 -6 1 -7 9 -4 18 7 21 14 7 14 -6 0 -13 -4 -16 -10z"/>
<path d="M8096 5673 c-6 -14 -5 -15 5 -6 7 7 10 15 7 18 -3 3 -9 -2 -12 -12z"/>
<path d="M1276 5627 c3 -10 9 -15 12 -12 3 3 0 11 -7 18 -10 9 -11 8 -5 -6z"/>
<path d="M7010 5619 c0 -5 5 -7 10 -4 6 3 10 8 10 11 0 2 -4 4 -10 4 -5 0 -10
-5 -10 -11z"/>
<path d="M8015 5620 c-3 -5 -1 -10 4 -10 6 0 11 5 11 10 0 6 -2 10 -4 10 -3 0
-8 -4 -11 -10z"/>
<path d="M7005 5560 c-3 -6 1 -7 9 -4 18 7 21 14 7 14 -6 0 -13 -4 -16 -10z"/>
<path d="M6885 5540 c-3 -6 1 -7 9 -4 18 7 21 14 7 14 -6 0 -13 -4 -16 -10z"/>
<path d="M8073 5475 c0 -8 4 -12 9 -9 5 3 6 10 3 15 -9 13 -12 11 -12 -6z"/>
<path d="M6815 5459 c-3 -4 2 -6 10 -5 21 3 28 13 10 13 -9 0 -18 -4 -20 -8z"/>
<path d="M8134 5458 c-4 -7 -4 -10 1 -6 4 4 15 2 24 -5 14 -11 14 -10 2 6 -16
20 -18 21 -27 5z"/>
<path d="M6815 5431 c-3 -5 -2 -12 3 -15 5 -3 9 1 9 9 0 17 -3 19 -12 6z"/>
<path d="M7995 5400 c3 -5 8 -10 11 -10 2 0 4 5 4 10 0 6 -5 10 -11 10 -5 0
-7 -4 -4 -10z"/>
<path d="M8859 5408 c-5 -18 -6 -38 -1 -34 7 8 12 36 6 36 -2 0 -4 -1 -5 -2z"/>
<path d="M8675 5329 c-4 -6 -5 -12 -2 -15 2 -3 7 2 10 11 7 17 1 20 -8 4z"/>
<path d="M3716 5322 c-3 -5 1 -9 9 -9 8 0 12 4 9 9 -3 4 -7 8 -9 8 -2 0 -6 -4
-9 -8z"/>
<path d="M8716 5318 c3 -5 10 -6 15 -3 13 9 11 12 -6 12 -8 0 -12 -4 -9 -9z"/>
<path d="M8955 5320 c-3 -5 -1 -10 4 -10 6 0 11 5 11 10 0 6 -2 10 -4 10 -3 0
-8 -4 -11 -10z"/>
<path d="M8854 5302 c4 -3 14 -7 22 -8 9 -1 13 0 10 4 -4 3 -14 7 -22 8 -9 1
-13 0 -10 -4z"/>
<path d="M8596 5273 c-6 -14 -5 -15 5 -6 7 7 10 15 7 18 -3 3 -9 -2 -12 -12z"/>
<path d="M8870 5261 c0 -6 4 -13 10 -16 6 -3 7 1 4 9 -7 18 -14 21 -14 7z"/>
<path d="M8710 5236 c7 -7 13 -7 20 0 6 6 3 10 -10 10 -13 0 -16 -4 -10 -10z"/>
<path d="M8695 5180 c3 -5 8 -10 11 -10 2 0 4 5 4 10 0 6 -5 10 -11 10 -5 0
-7 -4 -4 -10z"/>
<path d="M8776 5182 c-3 -5 1 -9 9 -9 8 0 12 4 9 9 -3 4 -7 8 -9 8 -2 0 -6 -4
-9 -8z"/>
<path d="M8390 5176 c0 -2 8 -10 18 -17 15 -13 16 -12 3 4 -13 16 -21 21 -21
13z"/>
<path d="M8595 5171 c-3 -5 -2 -12 3 -15 5 -3 9 1 9 9 0 17 -3 19 -12 6z"/>
<path d="M8315 5160 c3 -5 8 -10 11 -10 2 0 4 5 4 10 0 6 -5 10 -11 10 -5 0
-7 -4 -4 -10z"/>
<path d="M8789 5123 c-13 -16 -12 -17 4 -4 16 13 21 21 13 21 -2 0 -10 -8 -17
-17z"/>
<path d="M8290 5120 c0 -5 5 -10 11 -10 5 0 7 5 4 10 -3 6 -8 10 -11 10 -2 0
-4 -4 -4 -10z"/>
<path d="M8534 5116 c1 -8 5 -18 8 -22 4 -3 5 1 4 10 -1 8 -5 18 -8 22 -4 3
-5 -1 -4 -10z"/>
<path d="M8376 5098 c3 -4 11 -5 19 -1 21 7 19 12 -4 10 -11 0 -18 -5 -15 -9z"/>
<path d="M8146 5078 c3 -5 10 -6 15 -3 13 9 11 12 -6 12 -8 0 -12 -4 -9 -9z"/>
<path d="M8413 5055 c0 -8 4 -12 9 -9 5 3 6 10 3 15 -9 13 -12 11 -12 -6z"/>
<path d="M2545 4620 c-3 -6 1 -7 9 -4 18 7 21 14 7 14 -6 0 -13 -4 -16 -10z"/>
<path d="M1377 4613 c-10 -9 -9 -23 1 -23 5 0 9 7 9 15 0 17 -1 18 -10 8z"/>
<path d="M2396 4607 c3 -10 9 -15 12 -12 3 3 0 11 -7 18 -10 9 -11 8 -5 -6z"/>
<path d="M1630 4601 c0 -6 4 -13 10 -16 6 -3 7 1 4 9 -7 18 -14 21 -14 7z"/>
<path d="M2613 4595 c0 -8 4 -12 9 -9 4 3 8 9 8 15 0 5 -4 9 -8 9 -5 0 -9 -7
-9 -15z"/>
<path d="M1440 4580 c-9 -6 -10 -10 -3 -10 6 0 15 5 18 10 8 12 4 12 -15 0z"/>
<path d="M1476 4581 c-3 -5 2 -15 12 -22 15 -12 16 -12 5 2 -7 9 -10 19 -6 22
3 4 4 7 0 7 -3 0 -8 -4 -11 -9z"/>
<path d="M1255 4571 c-3 -5 -2 -12 3 -15 5 -3 9 1 9 9 0 17 -3 19 -12 6z"/>
<path d="M1542 4565 c15 -16 20 -17 30 -6 11 11 10 13 0 7 -7 -4 -21 -2 -30 5
-15 12 -15 11 0 -6z"/>
<path d="M2656 4553 c-6 -14 -5 -15 5 -6 7 7 10 15 7 18 -3 3 -9 -2 -12 -12z"/>
<path d="M1635 4539 c-3 -4 2 -6 10 -5 21 3 28 13 10 13 -9 0 -18 -4 -20 -8z"/>
<path d="M2333 4535 c0 -8 4 -12 9 -9 5 3 6 10 3 15 -9 13 -12 11 -12 -6z"/>
<path d="M1550 4519 c0 -5 5 -7 10 -4 6 3 10 8 10 11 0 2 -4 4 -10 4 -5 0 -10
-5 -10 -11z"/>
<path d="M1715 4520 c3 -5 8 -10 11 -10 2 0 4 5 4 10 0 6 -5 10 -11 10 -5 0
-7 -4 -4 -10z"/>
<path d="M1313 4495 c0 -8 4 -12 9 -9 5 3 6 10 3 15 -9 13 -12 11 -12 -6z"/>
<path d="M2673 4495 c0 -8 4 -12 9 -9 5 3 6 10 3 15 -9 13 -12 11 -12 -6z"/>
<path d="M1589 4483 c-13 -16 -12 -17 4 -4 9 7 17 15 17 17 0 8 -8 3 -21 -13z"/>
<path d="M5880 4480 c-9 -6 -10 -10 -3 -10 6 0 15 5 18 10 8 12 4 12 -15 0z"/>
<path d="M1535 4460 c-3 -5 -1 -10 4 -10 6 0 11 5 11 10 0 6 -2 10 -4 10 -3 0
-8 -4 -11 -10z"/>
<path d="M2419 4468 c-5 -18 -6 -38 -1 -34 7 8 12 36 6 36 -2 0 -4 -1 -5 -2z"/>
<path d="M1450 4419 c0 -5 5 -7 10 -4 6 3 10 8 10 11 0 2 -4 4 -10 4 -5 0 -10
-5 -10 -11z"/>
<path d="M2486 4418 c3 -5 10 -6 15 -3 13 9 11 12 -6 12 -8 0 -12 -4 -9 -9z"/>
<path d="M1334 4396 c1 -8 5 -18 8 -22 4 -3 5 1 4 10 -1 8 -5 18 -8 22 -4 3
-5 -1 -4 -10z"/>
<path d="M2436 4398 c3 -5 10 -6 15 -3 13 9 11 12 -6 12 -8 0 -12 -4 -9 -9z"/>
<path d="M2626 4402 c-3 -5 1 -9 9 -9 8 0 12 4 9 9 -3 4 -7 8 -9 8 -2 0 -6 -4
-9 -8z"/>
<path d="M1295 4380 c-3 -5 -1 -10 4 -10 6 0 11 5 11 10 0 6 -2 10 -4 10 -3 0
-8 -4 -11 -10z"/>
<path d="M1376 4382 c-2 -4 -1 -14 4 -22 7 -11 9 -9 7 8 -1 24 -3 26 -11 14z"/>
<path d="M1475 4381 c-3 -5 -2 -12 3 -15 5 -3 9 1 9 9 0 17 -3 19 -12 6z"/>
<path d="M2690 4379 c0 -5 5 -7 10 -4 6 3 10 8 10 11 0 2 -4 4 -10 4 -5 0 -10
-5 -10 -11z"/>
<path d="M1270 4181 c0 -6 4 -13 10 -16 6 -3 7 1 4 9 -7 18 -14 21 -14 7z"/>
<path d="M1276 4102 c-3 -5 1 -9 9 -9 8 0 12 4 9 9 -3 4 -7 8 -9 8 -2 0 -6 -4
-9 -8z"/>
<path d="M5877 4093 c-10 -9 -9 -23 1 -23 5 0 9 7 9 15 0 17 -1 18 -10 8z"/>
<path d="M265 3999 c-3 -4 2 -6 10 -5 21 3 28 13 10 13 -9 0 -18 -4 -20 -8z"/>
<path d="M5877 3773 c-10 -9 -9 -23 1 -23 5 0 9 7 9 15 0 17 -1 18 -10 8z"/>
<path d="M8294 3648 c-1 -155 -27 -306 -52 -301 -6 2 -9 -4 -6 -11 6 -17 -24
-86 -37 -86 -5 0 -9 -5 -9 -10 0 -18 -62 -80 -74 -73 -6 3 -8 3 -4 -2 22 -24
-179 -119 -262 -124 -8 0 -26 -2 -40 -5 -14 -2 -43 -4 -65 -5 l-41 -1 1 -192
c0 -118 -4 -196 -10 -200 -7 -5 -6 -8 0 -8 12 0 12 -180 1 -198 -3 -6 -2 -13
2 -16 10 -6 8 -48 -2 -65 -4 -5 -2 -12 2 -15 10 -6 8 -48 -2 -65 -4 -5 -2 -12
2 -15 11 -6 9 -36 -3 -55 -5 -10 -4 -12 3 -7 8 4 12 0 12 -11 0 -11 3 -14 8
-7 4 7 50 14 107 17 55 4 113 9 129 12 23 5 27 3 22 -10 -3 -9 -2 -13 4 -10 6
3 10 12 10 20 0 8 11 12 30 11 17 -1 30 2 30 7 0 5 8 7 18 5 10 -3 23 1 30 8
6 7 21 11 32 9 11 -2 20 1 20 7 0 6 3 8 7 5 3 -4 12 -2 19 4 8 6 21 9 29 5 9
-3 13 -2 10 3 -7 12 31 24 47 15 7 -4 10 -4 6 1 -4 4 14 18 40 31 54 28 57 28
46 11 -5 -7 0 -3 11 10 12 13 26 23 33 23 7 0 12 5 12 10 0 6 6 10 14 10 8 0
21 6 28 13 27 27 76 56 82 50 3 -3 6 1 6 10 0 10 7 17 15 17 8 0 20 9 27 20 7
11 16 20 21 20 4 0 19 11 33 25 14 14 29 23 35 20 5 -4 6 2 2 12 -3 10 -3 15
1 11 11 -10 97 80 172 181 21 28 45 51 54 52 8 0 10 3 3 5 -7 3 -2 18 15 44
21 34 28 38 41 27 14 -10 14 -10 3 5 -11 14 -10 24 11 62 13 25 28 42 32 38 5
-4 5 -1 1 6 -4 7 -4 18 1 25 5 7 17 37 27 67 10 30 20 62 23 70 4 8 5 21 4 28
-1 6 2 12 6 12 4 0 8 10 9 23 0 12 4 40 8 62 4 22 8 71 9 109 l2 70 -90 34
c-49 18 -115 43 -145 54 -30 11 -74 29 -97 39 -24 11 -49 19 -56 19 -7 0 -18
5 -25 12 -7 7 -12 9 -12 5 0 -4 -17 1 -37 12 -21 10 -40 19 -43 19 -7 1 -30 9
-160 58 -63 24 -120 44 -125 44 -7 0 -11 -43 -11 -112z"/>
<path d="M3716 3402 c-3 -5 1 -9 9 -9 8 0 12 4 9 9 -3 4 -7 8 -9 8 -2 0 -6 -4
-9 -8z"/>
<path d="M4737 3224 c-1 -2 -17 -5 -34 -9 -18 -3 -43 -9 -57 -15 -15 -5 -26
-8 -26 -5 0 8 -131 -71 -174 -105 -93 -74 -168 -235 -170 -365 -1 -33 -5 -66
-10 -74 -6 -9 -5 -12 1 -8 6 4 13 -12 17 -40 9 -70 24 -110 78 -204 7 -13 18
-27 23 -31 6 -4 6 -8 2 -8 -4 0 3 -11 17 -24 15 -13 26 -29 26 -35 0 -7 5 -9
10 -6 9 6 14 -8 11 -28 -1 -5 3 -6 9 -2 12 7 42 -13 36 -24 -3 -4 5 -8 17 -8
12 -1 23 -7 25 -13 2 -5 13 -10 23 -10 12 0 17 -4 14 -11 -4 -6 -1 -9 6 -8 18
3 100 -21 118 -35 11 -8 13 -8 8 1 -5 8 1 10 20 6 16 -3 39 -6 53 -7 14 0 31
-5 39 -10 9 -6 12 -5 8 1 -4 6 2 13 13 16 11 3 20 1 20 -4 0 -5 10 -4 22 2 17
9 23 9 26 0 3 -8 8 -7 16 4 6 9 21 17 34 18 12 0 22 6 22 11 0 5 3 7 6 3 4 -3
29 5 56 19 27 14 53 22 59 19 5 -4 9 -3 8 2 -4 20 2 33 15 33 16 0 119 100
124 121 2 8 7 16 12 19 13 8 50 98 50 121 0 11 4 18 8 15 9 -5 9 0 14 122 2
46 0 86 -3 88 -4 2 -5 15 -4 29 2 14 -1 27 -6 31 -5 3 -9 13 -9 23 0 23 -66
156 -94 190 -108 131 -233 191 -404 195 -40 1 -74 1 -75 0z"/>
<path d="M6053 2835 c0 -8 4 -12 9 -9 5 3 6 10 3 15 -9 13 -12 11 -12 -6z"/>
<path d="M5990 2806 c0 -2 7 -7 16 -10 8 -3 12 -2 9 4 -6 10 -25 14 -25 6z"/>
<path d="M8935 2791 c-3 -5 -2 -12 3 -15 5 -3 9 1 9 9 0 17 -3 19 -12 6z"/>
<path d="M6109 2723 c-13 -16 -12 -17 4 -4 16 13 21 21 13 21 -2 0 -10 -8 -17
-17z"/>
<path d="M6135 2700 c3 -5 8 -10 11 -10 2 0 4 5 4 10 0 6 -5 10 -11 10 -5 0
-7 -4 -4 -10z"/>
<path d="M8895 2680 c-3 -5 -1 -10 4 -10 6 0 11 5 11 10 0 6 -2 10 -4 10 -3 0
-8 -4 -11 -10z"/>
<path d="M6175 2660 c3 -5 8 -10 11 -10 2 0 4 5 4 10 0 6 -5 10 -11 10 -5 0
-7 -4 -4 -10z"/>
<path d="M8847 2639 c7 -7 15 -10 18 -7 3 3 -2 9 -12 12 -14 6 -15 5 -6 -5z"/>
<path d="M6110 2606 c0 -2 7 -7 16 -10 8 -3 12 -2 9 4 -6 10 -25 14 -25 6z"/>
<path d="M6196 2593 c-6 -14 -5 -15 5 -6 7 7 10 15 7 18 -3 3 -9 -2 -12 -12z"/>
<path d="M8846 2558 c3 -5 10 -6 15 -3 13 9 11 12 -6 12 -8 0 -12 -4 -9 -9z"/>
<path d="M6214 2516 c1 -8 5 -18 8 -22 4 -3 5 1 4 10 -1 8 -5 18 -8 22 -4 3
-5 -1 -4 -10z"/>
<path d="M6330 2519 c0 -5 5 -7 10 -4 6 3 10 8 10 11 0 2 -4 4 -10 4 -5 0 -10
-5 -10 -11z"/>
<path d="M6295 2500 c-3 -5 -1 -10 4 -10 6 0 11 5 11 10 0 6 -2 10 -4 10 -3 0
-8 -4 -11 -10z"/>
<path d="M8775 2501 c-3 -5 -2 -12 3 -15 5 -3 9 1 9 9 0 17 -3 19 -12 6z"/>
<path d="M6255 2480 c-3 -5 -1 -10 4 -10 6 0 11 5 11 10 0 6 -2 10 -4 10 -3 0
-8 -4 -11 -10z"/>
<path d="M8596 2482 c-3 -5 1 -9 9 -9 8 0 12 4 9 9 -3 4 -7 8 -9 8 -2 0 -6 -4
-9 -8z"/>
<path d="M8699 2448 c-5 -18 -6 -38 -1 -34 7 8 12 36 6 36 -2 0 -4 -1 -5 -2z"/>
<path d="M6335 2420 c3 -5 8 -10 11 -10 2 0 4 5 4 10 0 6 -5 10 -11 10 -5 0
-7 -4 -4 -10z"/>
<path d="M8615 2420 c3 -5 8 -10 11 -10 2 0 4 5 4 10 0 6 -5 10 -11 10 -5 0
-7 -4 -4 -10z"/>
<path d="M8639 2393 c-13 -16 -12 -17 4 -4 16 13 21 21 13 21 -2 0 -10 -8 -17
-17z"/>
<path d="M6314 2382 c4 -3 14 -7 22 -8 9 -1 13 0 10 4 -4 3 -14 7 -22 8 -9 1
-13 0 -10 -4z"/>
<path d="M6379 2368 c-5 -18 -6 -38 -1 -34 7 8 12 36 6 36 -2 0 -4 -1 -5 -2z"/>
<path d="M8679 2353 c-13 -17 -13 -17 6 -3 11 8 22 16 24 17 2 2 0 3 -6 3 -6
0 -17 -8 -24 -17z"/>
<path d="M6575 2329 c-4 -6 -5 -12 -2 -15 2 -3 7 2 10 11 7 17 1 20 -8 4z"/>
<path d="M6414 2316 c1 -8 5 -18 8 -22 4 -3 5 1 4 10 -1 8 -5 18 -8 22 -4 3
-5 -1 -4 -10z"/>
<path d="M6470 2296 c0 -2 8 -10 18 -17 15 -13 16 -12 3 4 -13 16 -21 21 -21
13z"/>
<path d="M6714 2286 c1 -8 5 -18 8 -22 4 -3 5 1 4 10 -1 8 -5 18 -8 22 -4 3
-5 -1 -4 -10z"/>
<path d="M8313 2285 c0 -8 4 -12 9 -9 5 3 6 10 3 15 -9 13 -12 11 -12 -6z"/>
<path d="M6360 2280 c-8 -5 -10 -10 -5 -10 6 0 17 5 25 10 8 5 11 10 5 10 -5
0 -17 -5 -25 -10z"/>
<path d="M6515 2280 c3 -5 8 -10 11 -10 2 0 4 5 4 10 0 6 -5 10 -11 10 -5 0
-7 -4 -4 -10z"/>
<path d="M6550 2278 c0 -4 4 -8 9 -8 6 0 12 4 15 8 3 5 -1 9 -9 9 -8 0 -15 -4
-15 -9z"/>
<path d="M8359 2273 c-13 -16 -12 -17 4 -4 16 13 21 21 13 21 -2 0 -10 -8 -17
-17z"/>
<path d="M8396 2282 c-3 -5 1 -9 9 -9 8 0 12 4 9 9 -3 4 -7 8 -9 8 -2 0 -6 -4
-9 -8z"/>
<path d="M8275 2271 c-3 -5 -2 -12 3 -15 5 -3 9 1 9 9 0 17 -3 19 -12 6z"/>
<path d="M4390 2259 c0 -5 5 -7 10 -4 6 3 10 8 10 11 0 2 -4 4 -10 4 -5 0 -10
-5 -10 -11z"/>
<path d="M6853 2245 c0 -8 4 -12 9 -9 5 3 6 10 3 15 -9 13 -12 11 -12 -6z"/>
<path d="M8395 2251 c-3 -5 -2 -12 3 -15 5 -3 9 1 9 9 0 17 -3 19 -12 6z"/>
<path d="M2715 2241 c-3 -5 -2 -12 3 -15 5 -3 9 1 9 9 0 17 -3 19 -12 6z"/>
<path d="M6410 2246 c0 -2 7 -7 16 -10 8 -3 12 -2 9 4 -6 10 -25 14 -25 6z"/>
<path d="M6465 2240 c-3 -6 1 -7 9 -4 18 7 21 14 7 14 -6 0 -13 -4 -16 -10z"/>
<path d="M6546 2242 c-3 -5 1 -9 9 -9 8 0 12 4 9 9 -3 4 -7 8 -9 8 -2 0 -6 -4
-9 -8z"/>
<path d="M8149 2223 c-13 -16 -12 -17 4 -4 16 13 21 21 13 21 -2 0 -10 -8 -17
-17z"/>
<path d="M8496 2218 c3 -5 10 -6 15 -3 13 9 11 12 -6 12 -8 0 -12 -4 -9 -9z"/>
<path d="M4475 2209 c-4 -6 -5 -12 -2 -15 2 -3 7 2 10 11 7 17 1 20 -8 4z"/>
<path d="M5036 2202 c-3 -5 1 -9 9 -9 8 0 12 4 9 9 -3 4 -7 8 -9 8 -2 0 -6 -4
-9 -8z"/>
<path d="M7014 2198 c-4 -7 -4 -10 1 -6 4 4 15 2 24 -5 14 -11 14 -10 2 6 -16
20 -18 21 -27 5z"/>
<path d="M8224 2202 c4 -3 14 -7 22 -8 9 -1 13 0 10 4 -4 3 -14 7 -22 8 -9 1
-13 0 -10 -4z"/>
<path d="M735 2189 c-4 -6 -5 -12 -2 -15 2 -3 7 2 10 11 7 17 1 20 -8 4z"/>
<path d="M555 2180 c-3 -6 1 -7 9 -4 18 7 21 14 7 14 -6 0 -13 -4 -16 -10z"/>
<path d="M3193 2175 c0 -8 4 -12 9 -9 5 3 6 10 3 15 -9 13 -12 11 -12 -6z"/>
<path d="M5090 2180 c0 -5 5 -10 11 -10 5 0 7 5 4 10 -3 6 -8 10 -11 10 -2 0
-4 -4 -4 -10z"/>
<path d="M5130 2180 c0 -5 5 -10 11 -10 5 0 7 5 4 10 -3 6 -8 10 -11 10 -2 0
-4 -4 -4 -10z"/>
<path d="M6610 2180 c0 -5 5 -10 11 -10 5 0 7 5 4 10 -3 6 -8 10 -11 10 -2 0
-4 -4 -4 -10z"/>
<path d="M6835 2181 c-3 -5 -2 -12 3 -15 5 -3 9 1 9 9 0 17 -3 19 -12 6z"/>
<path d="M6910 2178 c0 -4 4 -8 9 -8 6 0 12 4 15 8 3 5 -1 9 -9 9 -8 0 -15 -4
-15 -9z"/>
<path d="M7210 2180 c0 -5 5 -10 11 -10 5 0 7 5 4 10 -3 6 -8 10 -11 10 -2 0
-4 -4 -4 -10z"/>
<path d="M8160 2175 c-7 -8 -17 -12 -23 -8 -6 4 -7 1 -3 -6 6 -9 13 -8 27 5
10 9 19 19 19 21 0 7 -8 2 -20 -12z"/>
<path d="M817 2173 c-10 -9 -9 -23 1 -23 5 0 9 7 9 15 0 17 -1 18 -10 8z"/>
<path d="M933 2165 c0 -8 4 -15 9 -15 4 0 8 4 8 9 0 6 -4 12 -8 15 -5 3 -9 -1
-9 -9z"/>
<path d="M3014 2160 c0 -13 4 -16 10 -10 7 7 7 13 0 20 -6 6 -10 3 -10 -10z"/>
<path d="M8090 2176 c0 -2 8 -10 18 -17 15 -13 16 -12 3 4 -13 16 -21 21 -21
13z"/>
<path d="M8470 2176 c0 -2 8 -10 18 -17 15 -13 16 -12 3 4 -13 16 -21 21 -21
13z"/>
<path d="M475 2160 c3 -5 8 -10 11 -10 2 0 4 5 4 10 0 6 -5 10 -11 10 -5 0 -7
-4 -4 -10z"/>
<path d="M510 2161 c0 -6 4 -13 10 -16 6 -3 7 1 4 9 -7 18 -14 21 -14 7z"/>
<path d="M600 2165 c0 -2 6 -8 13 -14 10 -8 14 -7 14 2 0 8 -6 14 -14 14 -7 0
-13 -1 -13 -2z"/>
<path d="M3093 2155 c0 -8 4 -12 9 -9 5 3 6 10 3 15 -9 13 -12 11 -12 -6z"/>
<path d="M3156 2162 c-3 -5 1 -9 9 -9 8 0 12 4 9 9 -3 4 -7 8 -9 8 -2 0 -6 -4
-9 -8z"/>
<path d="M6760 2160 c-9 -6 -10 -10 -3 -10 6 0 15 5 18 10 8 12 4 12 -15 0z"/>
<path d="M6870 2159 c0 -5 5 -7 10 -4 6 3 10 8 10 11 0 2 -4 4 -10 4 -5 0 -10
-5 -10 -11z"/>
<path d="M7146 2162 c-3 -5 1 -9 9 -9 8 0 12 4 9 9 -3 4 -7 8 -9 8 -2 0 -6 -4
-9 -8z"/>
<path d="M7307 2159 c7 -7 15 -10 18 -7 3 3 -2 9 -12 12 -14 6 -15 5 -6 -5z"/>
<path d="M7946 2162 c-3 -5 1 -9 9 -9 8 0 12 4 9 9 -3 4 -7 8 -9 8 -2 0 -6 -4
-9 -8z"/>
<path d="M2890 2139 c0 -5 5 -7 10 -4 6 3 10 8 10 11 0 2 -4 4 -10 4 -5 0 -10
-5 -10 -11z"/>
<path d="M3575 2141 c-3 -5 -2 -12 3 -15 5 -3 9 1 9 9 0 17 -3 19 -12 6z"/>
<path d="M4446 2138 c3 -5 10 -6 15 -3 13 9 11 12 -6 12 -8 0 -12 -4 -9 -9z"/>
<path d="M4751 2133 c7 -12 15 -20 18 -17 3 2 -3 12 -13 22 -17 16 -18 16 -5
-5z"/>
<path d="M4876 2133 c-6 -14 -5 -15 5 -6 7 7 10 15 7 18 -3 3 -9 -2 -12 -12z"/>
<path d="M5095 2140 c3 -5 8 -10 11 -10 2 0 4 5 4 10 0 6 -5 10 -11 10 -5 0
-7 -4 -4 -10z"/>
<path d="M7855 2140 c3 -5 8 -10 11 -10 2 0 4 5 4 10 0 6 -5 10 -11 10 -5 0
-7 -4 -4 -10z"/>
<path d="M473 2125 c0 -8 4 -12 9 -9 5 3 6 10 3 15 -9 13 -12 11 -12 -6z"/>
<path d="M3176 2127 c3 -10 9 -15 12 -12 3 3 0 11 -7 18 -10 9 -11 8 -5 -6z"/>
<path d="M7153 2125 c0 -8 4 -12 9 -9 5 3 6 10 3 15 -9 13 -12 11 -12 -6z"/>
<path d="M8056 2127 c3 -10 9 -15 12 -12 3 3 0 11 -7 18 -10 9 -11 8 -5 -6z"/>
<path d="M906 2118 c3 -5 10 -6 15 -3 13 9 11 12 -6 12 -8 0 -12 -4 -9 -9z"/>
<path d="M3094 2118 c-4 -7 -3 -10 1 -5 5 4 18 -1 29 -10 21 -18 21 -18 2 5
-22 26 -23 26 -32 10z"/>
<path d="M3235 2121 c-3 -5 -2 -12 3 -15 5 -3 9 1 9 9 0 17 -3 19 -12 6z"/>
<path d="M4787 2119 c7 -7 15 -10 18 -7 3 3 -2 9 -12 12 -14 6 -15 5 -6 -5z"/>
<path d="M4960 2120 c-9 -6 -10 -10 -3 -10 6 0 15 5 18 10 8 12 4 12 -15 0z"/>
<path d="M6756 2122 c-3 -5 1 -9 9 -9 8 0 12 4 9 9 -3 4 -7 8 -9 8 -2 0 -6 -4
-9 -8z"/>
<path d="M6953 2115 c0 -8 4 -12 9 -9 5 3 6 10 3 15 -9 13 -12 11 -12 -6z"/>
<path d="M7771 2127 c2 -1 13 -9 24 -17 19 -14 19 -14 6 3 -7 9 -18 17 -24 17
-6 0 -8 -1 -6 -3z"/>
<path d="M7993 2115 c0 -8 4 -12 9 -9 5 3 6 10 3 15 -9 13 -12 11 -12 -6z"/>
<path d="M5093 2105 c0 -8 4 -12 9 -9 5 3 6 10 3 15 -9 13 -12 11 -12 -6z"/>
<path d="M415 2099 c-3 -4 2 -6 10 -5 21 3 28 13 10 13 -9 0 -18 -4 -20 -8z"/>
<path d="M4496 2098 c3 -5 10 -6 15 -3 13 9 11 12 -6 12 -8 0 -12 -4 -9 -9z"/>
<path d="M4535 2100 c-3 -5 -1 -10 4 -10 6 0 11 5 11 10 0 6 -2 10 -4 10 -3 0
-8 -4 -11 -10z"/>
<path d="M4570 2099 c0 -5 5 -7 10 -4 6 3 10 8 10 11 0 2 -4 4 -10 4 -5 0 -10
-5 -10 -11z"/>
<path d="M7855 2100 c-3 -5 -1 -10 4 -10 6 0 11 5 11 10 0 6 -2 10 -4 10 -3 0
-8 -4 -11 -10z"/>
<path d="M603 2082 c10 -10 14 -22 10 -27 -5 -4 -2 -5 5 -1 11 6 10 12 -4 27
-9 10 -19 19 -22 19 -3 0 2 -8 11 -18z"/>
<path d="M876 2087 c3 -10 9 -15 12 -12 3 3 0 11 -7 18 -10 9 -11 8 -5 -6z"/>
<path d="M4989 2083 c-13 -16 -12 -17 4 -4 9 7 17 15 17 17 0 8 -8 3 -21 -13z"/>
<path d="M8034 2089 c-3 -6 -2 -15 3 -20 5 -5 9 -1 9 11 0 23 -2 24 -12 9z"/>
<path d="M8196 2087 c3 -10 9 -15 12 -12 3 3 0 11 -7 18 -10 9 -11 8 -5 -6z"/>
<path d="M8234 2080 c0 -13 4 -16 10 -10 7 7 7 13 0 20 -6 6 -10 3 -10 -10z"/>
<path d="M510 2081 c0 -6 4 -13 10 -16 6 -3 7 1 4 9 -7 18 -14 21 -14 7z"/>
<path d="M746 2082 c-2 -4 4 -8 14 -8 10 0 16 4 14 8 -3 4 -9 8 -14 8 -5 0
-11 -4 -14 -8z"/>
<path d="M3075 2081 c-3 -5 -2 -12 3 -15 5 -3 9 1 9 9 0 17 -3 19 -12 6z"/>
<path d="M3190 2081 c0 -6 4 -12 8 -15 5 -3 9 1 9 9 0 8 -4 15 -9 15 -4 0 -8
-4 -8 -9z"/>
<path d="M5116 2073 c-6 -14 -5 -15 5 -6 7 7 10 15 7 18 -3 3 -9 -2 -12 -12z"/>
<path d="M6746 2078 c3 -5 10 -6 15 -3 13 9 11 12 -6 12 -8 0 -12 -4 -9 -9z"/>
<path d="M6995 2080 c3 -5 8 -10 11 -10 2 0 4 5 4 10 0 6 -5 10 -11 10 -5 0
-7 -4 -4 -10z"/>
<path d="M7190 2086 c0 -2 7 -7 16 -10 8 -3 12 -2 9 4 -6 10 -25 14 -25 6z"/>
<path d="M7267 2079 c7 -7 15 -10 18 -7 3 3 -2 9 -12 12 -14 6 -15 5 -6 -5z"/>
<path d="M7995 2080 c-3 -5 -1 -10 4 -10 6 0 11 5 11 10 0 6 -2 10 -4 10 -3 0
-8 -4 -11 -10z"/>
<path d="M7855 2071 c-3 -5 -2 -12 3 -15 5 -3 9 1 9 9 0 17 -3 19 -12 6z"/>
<path d="M433 2055 c0 -8 4 -12 9 -9 5 3 6 10 3 15 -9 13 -12 11 -12 -6z"/>
<path d="M1099 2068 c-5 -18 -6 -38 -1 -34 7 8 12 36 6 36 -2 0 -4 -1 -5 -2z"/>
<path d="M6794 2062 c4 -3 14 -7 22 -8 9 -1 13 0 10 4 -4 3 -14 7 -22 8 -9 1
-13 0 -10 -4z"/>
<path d="M7179 2068 c-5 -18 -6 -38 -1 -34 7 8 12 36 6 36 -2 0 -4 -1 -5 -2z"/>
<path d="M3514 2046 c1 -8 5 -18 8 -22 4 -3 5 1 4 10 -1 8 -5 18 -8 22 -4 3
-5 -1 -4 -10z"/>
<path d="M499 2048 c-5 -18 -6 -38 -1 -34 7 8 12 36 6 36 -2 0 -4 -1 -5 -2z"/>
<path d="M940 2046 c0 -2 8 -10 18 -17 15 -13 16 -12 3 4 -13 16 -21 21 -21
13z"/>
<path d="M4574 2036 c1 -8 5 -18 8 -22 4 -3 5 1 4 10 -1 8 -5 18 -8 22 -4 3
-5 -1 -4 -10z"/>
<path d="M4719 2033 c-13 -16 -12 -17 4 -4 16 13 21 21 13 21 -2 0 -10 -8 -17
-17z"/>
<path d="M6590 2046 c0 -2 7 -7 16 -10 8 -3 12 -2 9 4 -6 10 -25 14 -25 6z"/>
<path d="M8033 2035 c0 -8 4 -12 9 -9 5 3 6 10 3 15 -9 13 -12 11 -12 -6z"/>
<path d="M8315 2040 c-3 -5 -1 -10 4 -10 6 0 11 5 11 10 0 6 -2 10 -4 10 -3 0
-8 -4 -11 -10z"/>
<path d="M2955 2030 c-4 -6 -11 -7 -17 -4 -7 4 -8 2 -4 -5 6 -9 11 -9 22 0 14
11 18 19 10 19 -3 0 -8 -5 -11 -10z"/>
<path d="M570 2020 c0 -5 5 -10 11 -10 5 0 7 5 4 10 -3 6 -8 10 -11 10 -2 0
-4 -4 -4 -10z"/>
<path d="M610 2019 c0 -5 5 -7 10 -4 6 3 10 8 10 11 0 2 -4 4 -10 4 -5 0 -10
-5 -10 -11z"/>
<path d="M655 2020 c-3 -5 -1 -10 4 -10 6 0 11 5 11 10 0 6 -2 10 -4 10 -3 0
-8 -4 -11 -10z"/>
<path d="M695 2020 c-3 -5 -1 -10 4 -10 6 0 11 5 11 10 0 6 -2 10 -4 10 -3 0
-8 -4 -11 -10z"/>
<path d="M770 2019 c0 -5 5 -7 10 -4 6 3 10 8 10 11 0 2 -4 4 -10 4 -5 0 -10
-5 -10 -11z"/>
<path d="M810 2020 c0 -5 5 -10 11 -10 5 0 7 5 4 10 -3 6 -8 10 -11 10 -2 0
-4 -4 -4 -10z"/>
<path d="M2875 2020 c3 -5 8 -10 11 -10 2 0 4 5 4 10 0 6 -5 10 -11 10 -5 0
-7 -4 -4 -10z"/>
<path d="M3095 2020 c-3 -5 -1 -10 4 -10 6 0 11 5 11 10 0 6 -2 10 -4 10 -3 0
-8 -4 -11 -10z"/>
<path d="M3130 2019 c0 -5 5 -7 10 -4 6 3 10 8 10 11 0 2 -4 4 -10 4 -5 0 -10
-5 -10 -11z"/>
<path d="M3295 2020 c3 -5 8 -10 11 -10 2 0 4 5 4 10 0 6 -5 10 -11 10 -5 0
-7 -4 -4 -10z"/>
<path d="M3330 2020 c0 -5 5 -10 11 -10 5 0 7 5 4 10 -3 6 -8 10 -11 10 -2 0
-4 -4 -4 -10z"/>
<path d="M6926 2022 c-3 -5 1 -9 9 -9 8 0 12 4 9 9 -3 4 -7 8 -9 8 -2 0 -6 -4
-9 -8z"/>
<path d="M7096 2022 c-3 -5 1 -9 9 -9 8 0 12 4 9 9 -3 4 -7 8 -9 8 -2 0 -6 -4
-9 -8z"/>
<path d="M7975 2020 c-3 -5 -1 -10 4 -10 6 0 11 5 11 10 0 6 -2 10 -4 10 -3 0
-8 -4 -11 -10z"/>
<path d="M8086 2022 c-3 -5 1 -9 9 -9 8 0 12 4 9 9 -3 4 -7 8 -9 8 -2 0 -6 -4
-9 -8z"/>
<path d="M913 1995 c0 -8 4 -12 9 -9 5 3 6 10 3 15 -9 13 -12 11 -12 -6z"/>
<path d="M974 1996 c1 -8 5 -18 8 -22 4 -3 5 1 4 10 -1 8 -5 18 -8 22 -4 3 -5
-1 -4 -10z"/>
<path d="M4970 2000 c0 -5 5 -10 11 -10 5 0 7 5 4 10 -3 6 -8 10 -11 10 -2 0
-4 -4 -4 -10z"/>
<path d="M693 1985 c0 -8 4 -12 9 -9 5 3 6 10 3 15 -9 13 -12 11 -12 -6z"/>
<path d="M794 1982 c4 -3 14 -7 22 -8 9 -1 13 0 10 4 -4 3 -14 7 -22 8 -9 1
-13 0 -10 -4z"/>
<path d="M2780 1986 c0 -2 8 -10 18 -17 15 -13 16 -12 3 4 -13 16 -21 21 -21
13z"/>
<path d="M3070 1985 c0 -7 30 -13 34 -7 3 4 -4 9 -15 9 -10 1 -19 0 -19 -2z"/>
<path d="M3336 1982 c-3 -5 1 -9 9 -9 8 0 12 4 9 9 -3 4 -7 8 -9 8 -2 0 -6 -4
-9 -8z"/>
<path d="M3374 1976 c1 -8 5 -18 8 -22 4 -3 5 1 4 10 -1 8 -5 18 -8 22 -4 3
-5 -1 -4 -10z"/>
<path d="M4630 1985 c0 -7 30 -13 34 -7 3 4 -4 9 -15 9 -10 1 -19 0 -19 -2z"/>
<path d="M4815 1980 c3 -5 8 -10 11 -10 2 0 4 5 4 10 0 6 -5 10 -11 10 -5 0
-7 -4 -4 -10z"/>
<path d="M4895 1980 c3 -5 8 -10 11 -10 2 0 4 5 4 10 0 6 -5 10 -11 10 -5 0
-7 -4 -4 -10z"/>
<path d="M926 1962 c-3 -5 1 -9 9 -9 8 0 12 4 9 9 -3 4 -7 8 -9 8 -2 0 -6 -4
-9 -8z"/>
<path d="M4690 1960 c0 -5 5 -10 11 -10 5 0 7 5 4 10 -3 6 -8 10 -11 10 -2 0
-4 -4 -4 -10z"/>
<path d="M4735 1960 c-3 -5 -1 -10 4 -10 6 0 11 5 11 10 0 6 -2 10 -4 10 -3 0
-8 -4 -11 -10z"/>
<path d="M716 1947 c3 -10 9 -15 12 -12 3 3 0 11 -7 18 -10 9 -11 8 -5 -6z"/>
<path d="M790 1940 c0 -5 5 -10 11 -10 5 0 7 5 4 10 -3 6 -8 10 -11 10 -2 0
-4 -4 -4 -10z"/>
<path d="M4633 1935 c0 -8 4 -12 9 -9 5 3 6 10 3 15 -9 13 -12 11 -12 -6z"/>
<path d="M4813 1935 c0 -8 4 -12 9 -9 5 3 6 10 3 15 -9 13 -12 11 -12 -6z"/>
<path d="M400 1920 c-9 -6 -10 -10 -3 -10 6 0 15 5 18 10 8 12 4 12 -15 0z"/>
<path d="M4866 1918 c3 -5 10 -6 15 -3 13 9 11 12 -6 12 -8 0 -12 -4 -9 -9z"/>
<path d="M5076 1922 c-3 -5 1 -9 9 -9 8 0 12 4 9 9 -3 4 -7 8 -9 8 -2 0 -6 -4
-9 -8z"/>
</g>
</svg>
